<svg xmlns="http://www.w3.org/2000/svg" width="72" height="65" viewBox="0 0 72 65"><g><g><path fill="#fff" d="M49.446 4.807v2.208a1.407 1.407 0 1 1-2.812 0V4.807a1.99 1.99 0 0 0-1.986-1.99H27.521a1.99 1.99 0 0 0-1.985 1.99v2.208a1.407 1.407 0 1 1-2.813 0V4.807a4.808 4.808 0 0 1 4.798-4.808h17.127a4.808 4.808 0 0 1 4.798 4.808zM72 18.26v12.725c0 .627-.414 1.179-1.016 1.353l-.85.246v29.307A3.109 3.109 0 0 1 67.033 65H4.967a3.109 3.109 0 0 1-3.102-3.108V32.377l-.857-.253A1.408 1.408 0 0 1 0 30.772v-12.51c0-3.794 3.08-6.88 6.866-6.88h58.268c3.786 0 6.866 3.086 6.866 6.88zm-59.451 39.87a3.834 3.834 0 0 0-3.827-3.835H4.678v7.596c0 .16.13.29.29.29h7.58zm54.773-3.835h-4.044a3.834 3.834 0 0 0-3.827 3.834v4.052h7.581c.16 0 .29-.13.29-.29zm0-2.817v-18.08l-24.828 7.183v4.49c0 .778-.63 1.41-1.407 1.41H30.913a1.408 1.408 0 0 1-1.407-1.41v-4.527L4.678 33.208v18.27h4.044c3.66 0 6.64 2.984 6.64 6.652v4.052h41.277V58.13c0-3.668 2.978-6.651 6.639-6.651zm-27.641-7.816v-6.866h-7.362v6.866zm29.506-13.737V18.26a4.061 4.061 0 0 0-4.053-4.06h-6.192v4.877a1.407 1.407 0 1 1-2.812 0V14.2H15.36v4.877a1.407 1.407 0 1 1-2.812 0V14.2H6.866a4.061 4.061 0 0 0-4.054 4.06V29.72l26.694 7.888v-2.219c0-.778.63-1.409 1.407-1.409h10.174c.777 0 1.406.63 1.406 1.41v2.26zm-11.65-6.821c.776 0 1.406.631 1.406 1.409a1.407 1.407 0 1 1-2.813 0c0-.778.63-1.409 1.407-1.409zm-43.583 0c.777 0 1.406.631 1.406 1.409a1.407 1.407 0 1 1-2.812 0c0-.778.63-1.409 1.406-1.409z"/></g></g></svg>