<svg xmlns="http://www.w3.org/2000/svg" width="64" height="65" viewBox="0 0 64 65"><g><g><path fill="#fff" d="M64 55.833v1.98C64 61.775 60.8 65 56.87 65H7.13C3.198 65 0 61.775 0 57.813v-1.98c0-.7.564-1.27 1.26-1.27h3.093V21.943c0-2.86 2.307-5.185 5.143-5.185H24.95c-.423-5.647 1.442-11.282 5.162-15.544l.417-.478c.404-.462.986-.73 1.598-.735h.016c.605 0 1.185.259 1.592.711l.222.246a21.196 21.196 0 0 1 5.366 15.8h15.18c2.837 0 5.144 2.326 5.144 5.185v23.276c0 .7-.564 1.27-1.26 1.27-.695 0-1.259-.57-1.259-1.27V21.942c0-1.46-1.177-2.646-2.624-2.646H39.032l-.023.188 2.42 2.44a12.177 12.177 0 0 1 3.547 8.631v5.67c0 .5-.294.956-.748 1.16a1.249 1.249 0 0 1-1.356-.218l-5.54-5.039c-.157.286-.419.507-.741.603-1.499.447-3.05.673-4.612.673h-.055a16.143 16.143 0 0 1-4.556-.673 1.258 1.258 0 0 1-.73-.577l-5.51 5.012a1.254 1.254 0 0 1-1.356.218 1.271 1.271 0 0 1-.748-1.16v-5.67c0-3.26 1.26-6.326 3.547-8.632l.026-.025 2.617-2.49-.011-.11H9.496c-1.447 0-2.624 1.186-2.624 2.645v32.622h19.661c.696 0 1.26.568 1.26 1.27a2.11 2.11 0 0 0 2.098 2.114h4.185a2.11 2.11 0 0 0 2.099-2.115c0-.7.564-1.27 1.259-1.27H62.74c.695 0 1.259.57 1.259 1.27zM37.8 29.135l4.657 4.234v-2.814c0-2.582-.998-5.01-2.81-6.836l-1.038-1.047-.601 4.807zM27.508 17.078l.277 2.69v.001l.111 1.087.992 9.654c.998.232 2.02.35 3.045.355h.048c1.048 0 2.091-.12 3.11-.36l.13-1.03 1.212-9.692v-.003l.29-2.315a18.656 18.656 0 0 0-4.575-14.74l-.144.165a18.729 18.729 0 0 0-4.496 14.188zm-1.966 5.51l-1.201 1.143a9.646 9.646 0 0 0-2.797 6.824v2.813l4.67-4.246zm35.94 35.225v-.71H38.519c-.55 1.951-2.334 3.385-4.443 3.385H29.89c-2.11 0-3.894-1.433-4.443-3.385H2.518v.71c0 2.562 2.07 4.648 4.612 4.648h49.74c2.543 0 4.611-2.086 4.611-4.648zM54.524 23.4v27.135c0 .701-.564 1.27-1.26 1.27H11.159c-.696 0-1.26-.569-1.26-1.27V23.4c0-.701.564-1.27 1.26-1.27h5.254c.695 0 1.259.569 1.259 1.27 0 .7-.564 1.27-1.26 1.27h-3.994v24.596h39.588V24.669h-5.08c-.696 0-1.26-.568-1.26-1.27 0-.7.564-1.269 1.26-1.269h6.34c.695 0 1.26.569 1.26 1.27zM32 12.133c.695 0 1.26.568 1.26 1.269s-.565 1.27-1.26 1.27c-.696 0-1.26-.569-1.26-1.27 0-.701.564-1.27 1.26-1.27zm26.388 37.35c.695 0 1.26.568 1.26 1.269 0 .7-.565 1.27-1.26 1.27-.696 0-1.26-.57-1.26-1.27 0-.701.564-1.27 1.26-1.27zM29.985 36.517v5.167c0 .702-.564 1.27-1.26 1.27-.695 0-1.26-.569-1.26-1.27v-5.167c0-.701.565-1.27 1.26-1.27.696 0 1.26.569 1.26 1.27zm6.398-.294v7.62c0 .701-.564 1.27-1.26 1.27-.695 0-1.259-.569-1.259-1.27v-7.62c0-.701.564-1.27 1.26-1.27.695 0 1.259.569 1.259 1.27z"/></g></g></svg>