<svg xmlns="http://www.w3.org/2000/svg" width="57" height="74" viewBox="0 0 57 74"><defs><clipPath id="gqyua"><path fill="#fff" d="M-2 0C27.27 0 51 23.729 51 53c0 29.27-23.729 53-53 53s-53-23.73-53-53C-55 23.729-31.271 0-2 0z"/></clipPath></defs><g><g><path fill="none" stroke="#ac378e" stroke-miterlimit="20" stroke-width="2" d="M-2 0C27.27 0 51 23.729 51 53c0 29.27-23.729 53-53 53s-53-23.73-53-53C-55 23.729-31.271 0-2 0z" clip-path="url(&quot;#gqyua&quot;)"/></g><g opacity=".33"><path fill="#a53689" d="M49 58a8 8 0 1 1 0 16 8 8 0 0 1 0-16z"/></g><g><path fill="#a53689" d="M49 62a4 4 0 1 1 0 8 4 4 0 0 1 0-8z"/></g></g></svg>