<svg xmlns="http://www.w3.org/2000/svg" width="24" height="24" viewBox="0 0 24 24"><g><g><path fill="#fff" d="M24 12a11.91 11.91 0 0 1-3.515 8.48 11.92 11.92 0 0 1-8.323 3.51 1.594 1.594 0 0 1-.325 0 11.92 11.92 0 0 1-8.322-3.51A11.91 11.91 0 0 1 0 12a11.91 11.91 0 0 1 3.515-8.482 11.92 11.92 0 0 1 8.322-3.51c.055-.005.11-.01.163-.01.053 0 .108.005.162.01a11.921 11.921 0 0 1 8.323 3.51A11.91 11.91 0 0 1 24 12zM3.552 5.642h3.247c.317-.814.696-1.583 1.135-2.293.343-.557.712-1.06 1.091-1.496a10.509 10.509 0 0 0-4.502 2.673c-.352.352-.676.725-.971 1.116zM1.45 11.286h4.203c.056-1.456.282-2.88.664-4.217H2.643a10.479 10.479 0 0 0-1.192 4.217zm4.867 5.644a17.88 17.88 0 0 1-.664-4.218H1.451c.098 1.49.506 2.921 1.192 4.218zm2.707 5.214c-.38-.436-.748-.939-1.092-1.495-.438-.71-.817-1.48-1.134-2.294H3.552c.295.391.619.764.971 1.116a10.515 10.515 0 0 0 4.502 2.673zm2.262.136v-3.925H8.34c.238.543.507 1.06.807 1.545.746 1.21 1.544 1.991 2.139 2.38zm0-5.35v-4.218H7.082c.06 1.469.308 2.897.725 4.218zm0-5.644V7.069h-3.48a16.305 16.305 0 0 0-.725 4.217zm0-5.643V1.718c-.595.389-1.393 1.17-2.14 2.38-.299.485-.568 1.002-.806 1.545zm6.394 1.426c.383 1.336.609 2.76.664 4.217h4.204a10.477 10.477 0 0 0-1.192-4.217zm-2.707-5.215c.38.437.749.939 1.092 1.496.438.71.818 1.479 1.135 2.293h3.247a10.74 10.74 0 0 0-.972-1.116 10.51 10.51 0 0 0-4.502-2.673zm-2.26-.136zm0 0v3.925h2.945a12.514 12.514 0 0 0-.807-1.545c-.747-1.21-1.544-1.991-2.139-2.38zm0 9.568h4.204a16.3 16.3 0 0 0-.725-4.217h-3.48zm0 1.426v4.218h3.479c.417-1.321.664-2.75.725-4.218zm2.138 7.188c.3-.485.569-1.002.806-1.545h-2.945v3.925c.594-.389 1.392-1.17 2.139-2.38zm5.596-1.545h-3.247a14.197 14.197 0 0 1-1.135 2.294 11.49 11.49 0 0 1-1.092 1.496 10.524 10.524 0 0 0 4.502-2.674c.353-.351.677-.725.972-1.116zm2.101-5.643h-4.204a17.875 17.875 0 0 1-.664 4.218h3.676a10.482 10.482 0 0 0 1.192-4.218z"/></g></g></svg>